<svg width="76" height="60" viewBox="0 0 76 60" fill="none" xmlns="http://www.w3.org/2000/svg">
<g id="Frame 1">
<g id="Group 1">
<path id="Vector 7" d="M25.5574 41.9051H22.3828L27.1447 31.429H30.7956L35.7162 41.9051H32.5416L29.0495 33.9686L27.7797 36.8258L29.6163 38.4131H27.1447L25.5574 41.9051Z" fill="#252726"/>
<path id="Subtract" fill-rule="evenodd" clip-rule="evenodd" d="M38.8906 17.7781V28.2543H45.5573C47.4621 28.2543 50.3183 27.0991 50.6367 24.1273C50.9939 20.7939 49.5256 17.7781 46.1922 17.7781H38.8906ZM41.4297 20.0002V26.032H44.7412C45.8687 26.032 47.5594 25.3669 47.7479 23.6558C47.9593 21.7367 47.0902 20.0002 45.117 20.0002H41.4297Z" fill="#D0AE66"/>
<path id="Vector 1" d="M19.2084 17.7781H16.6688V23.4924C16.6688 26.032 15.0814 26.032 12.8592 26.032C11.0814 26.032 10.637 24.5506 10.637 23.8098H7.62109C7.62109 27.1432 9.6846 28.2543 14.4465 28.2543C18.2561 28.2543 19.2084 25.5029 19.2084 24.1273V17.7781Z" fill="#D0AE66"/>
<path id="Vector 2" d="M27.4622 17.4607L22.3828 27.9369H25.7162L27.1447 24.7623H29.6844L27.7797 23.3337L29.0495 20.3178L27.4622 17.4607Z" fill="#D0AE66"/>
<path id="Vector 3" d="M26.1934 11.1114L22.0664 16.5083L25.8759 7.61938L49.3681 10.1591L52.2253 18.0956L48.4157 11.1114L27.7807 9.52415L36.1935 30.0003L26.1934 11.1114Z" fill="#D0AE66"/>
<path id="Subtract_2" fill-rule="evenodd" clip-rule="evenodd" d="M60.9543 29.2068C64.7239 29.2068 67.7798 26.5063 67.7798 23.1751C67.7798 19.8438 64.7239 17.1433 60.9543 17.1433C57.1848 17.1433 54.1289 19.8438 54.1289 23.1751C54.1289 26.5063 57.1848 29.2068 60.9543 29.2068ZM60.9535 26.3497C62.9698 26.3497 64.6044 24.9284 64.6044 23.1751C64.6044 21.4218 62.9698 20.0005 60.9535 20.0005C58.9373 20.0005 57.3027 21.4218 57.3027 23.1751C57.3027 24.9284 58.9373 26.3497 60.9535 26.3497Z" fill="#D0AE66"/>
<path id="Vector 6" d="M10.6384 31.429H7.78125V41.9051H10.6384V38.4131H16.6702V41.5877H19.2099V31.429H16.6702V35.8734H10.6384V31.429Z" fill="#252726"/>
<path id="Subtract_3" fill-rule="evenodd" clip-rule="evenodd" d="M38.8906 41.9051H41.7478V38.0956H45.5573C46.2981 38.0956 47.7796 38.4766 47.7796 40.0004V41.9051H50.3193V39.048C50.3193 38.4131 49.9383 37.1432 48.4145 37.1432C50.0018 36.6671 50.3193 35.2385 50.3193 34.2861C50.3193 33.3337 49.6843 31.429 47.7796 31.429H38.8906V41.9051ZM46.3512 33.6514H41.748V35.8736H46.3512C46.9649 35.8736 47.4624 35.3761 47.4624 34.7625C47.4624 34.1488 46.9649 33.6514 46.3512 33.6514Z" fill="#252726"/>
<path id="Vector 9" d="M55.082 41.9051V31.7464H57.9392V35.8734L62.7011 31.429H66.8281L61.1138 36.1909L66.8281 41.9051H62.8598L57.9392 37.1432V41.9051H55.082Z" fill="#252726"/>
</g>
<g id="REALTOR">
<path d="M18.8566 48.2772C19.4581 48.2772 19.9443 48.3118 20.315 48.381C20.6928 48.4501 20.9656 48.5692 21.1335 48.7383C21.3084 48.9036 21.3958 49.138 21.3958 49.4415C21.3958 49.6413 21.3503 49.8123 21.2594 49.9545C21.1755 50.0928 21.0321 50.2043 20.8292 50.2888C20.6333 50.3695 20.3675 50.4214 20.0317 50.4444V50.4733C20.1507 50.4886 20.2731 50.5194 20.399 50.5655C20.5319 50.6078 20.6508 50.6692 20.7557 50.7499C20.8677 50.8306 20.9516 50.9344 21.0076 51.0612L21.6686 52.3062H20.2836L19.6855 51.0785C19.6085 50.9401 19.5036 50.8441 19.3707 50.7903C19.2378 50.7326 19.0559 50.7038 18.8251 50.7038C18.3704 50.7038 17.9822 50.7038 17.6604 50.7038C17.3386 50.7 17.0693 50.6961 16.8524 50.6923C16.6426 50.6885 16.4572 50.6865 16.2963 50.6865L16.3278 50.139H18.8251C19.1399 50.1351 19.3882 50.1159 19.5701 50.0813C19.7519 50.0429 19.8813 49.9776 19.9583 49.8853C20.0352 49.7893 20.0737 49.6548 20.0737 49.4819C20.0737 49.3128 20.0352 49.1821 19.9583 49.0899C19.8813 48.9977 19.7519 48.9343 19.5701 48.8997C19.3882 48.8613 19.1399 48.8421 18.8251 48.8421C18.2095 48.8421 17.6814 48.844 17.2407 48.8478C16.8 48.8517 16.4992 48.8555 16.3383 48.8594L16.1914 48.3291C16.4712 48.3137 16.7335 48.3022 16.9784 48.2945C17.2302 48.2868 17.503 48.283 17.7968 48.283C18.0906 48.2791 18.4438 48.2772 18.8566 48.2772ZM17.482 48.3291V52.3062H16.1914V48.3291H17.482Z" fill="#252726"/>
<path d="M24.2788 48.3176C24.6426 48.3176 25.0133 48.3176 25.3911 48.3176C25.7758 48.3176 26.1535 48.3214 26.5243 48.3291C26.895 48.3368 27.2448 48.3483 27.5736 48.3637L27.5106 48.8997H24.6776C24.4817 48.8997 24.3348 48.9266 24.2369 48.9804C24.1459 49.0342 24.1005 49.1187 24.1005 49.234V51.4013C24.1005 51.5165 24.1459 51.6011 24.2369 51.6549C24.3348 51.7087 24.4817 51.7356 24.6776 51.7356H27.5106L27.5736 52.2716C27.2448 52.287 26.895 52.2985 26.5243 52.3062C26.1535 52.31 25.7758 52.312 25.3911 52.312C25.0133 52.3158 24.6426 52.3177 24.2788 52.3177C23.8311 52.3177 23.4709 52.2505 23.1981 52.116C22.9323 51.9777 22.7959 51.7932 22.7889 51.5627V49.0726C22.7959 48.8421 22.9323 48.6595 23.1981 48.5251C23.4709 48.3867 23.8311 48.3176 24.2788 48.3176ZM22.9777 49.9603H27.1119V50.4906H22.9777V49.9603Z" fill="#252726"/>
<path d="M32.0257 48.3291C32.1377 48.3291 32.2356 48.3464 32.3195 48.381C32.4035 48.4155 32.4629 48.4617 32.4979 48.5193L34.6909 52.3062H33.3478L31.69 49.2398C31.662 49.1783 31.634 49.1168 31.606 49.0553C31.5781 48.9939 31.5536 48.9343 31.5326 48.8767H31.2388C31.2178 48.9343 31.1933 48.9939 31.1653 49.0553C31.1374 49.1168 31.1059 49.1783 31.0709 49.2398L29.4236 52.3062H28.0805L30.2735 48.5193C30.3014 48.4617 30.3574 48.4155 30.4413 48.381C30.5323 48.3464 30.6337 48.3291 30.7456 48.3291H32.0257ZM33.2429 50.6058V51.1707H29.518V50.6058H33.2429Z" fill="#252726"/>
<path d="M36.8277 48.3291V51.384C36.8277 51.4954 36.8802 51.5799 36.9851 51.6376C37.097 51.6914 37.2544 51.7183 37.4573 51.7183H40.0175L40.0805 52.2659C39.6048 52.2889 39.1081 52.3024 38.5905 52.3062C38.0799 52.3139 37.5727 52.3177 37.0691 52.3177C36.5374 52.3177 36.1457 52.2428 35.8939 52.0929C35.649 51.9431 35.5266 51.7529 35.5266 51.5223V48.3291H36.8277Z" fill="#252726"/>
<path d="M42.9844 48.3291V52.3062H41.6728V48.3291H42.9844ZM45.2299 48.3291V48.917H39.4274V48.3291H45.2299Z" fill="#252726"/>
<path d="M48.8817 48.2542C49.4413 48.2542 49.9134 48.2887 50.2982 48.3579C50.6829 48.4232 50.9907 48.5347 51.2215 48.6922C51.4594 48.8498 51.6307 49.0611 51.7357 49.3262C51.8406 49.5914 51.8931 49.9219 51.8931 50.3176C51.8931 50.7096 51.8406 51.0401 51.7357 51.309C51.6307 51.5742 51.4594 51.7855 51.2215 51.9431C50.9907 52.1006 50.6829 52.214 50.2982 52.2831C49.9134 52.3485 49.4413 52.3811 48.8817 52.3811C48.336 52.3811 47.8709 52.3485 47.4861 52.2831C47.1014 52.214 46.7901 52.1006 46.5523 51.9431C46.3144 51.7855 46.1431 51.5742 46.0381 51.309C45.9332 51.0401 45.8807 50.7096 45.8807 50.3176C45.8807 49.9219 45.9332 49.5914 46.0381 49.3262C46.1431 49.0611 46.3144 48.8498 46.5523 48.6922C46.7901 48.5347 47.1014 48.4232 47.4861 48.3579C47.8709 48.2887 48.336 48.2542 48.8817 48.2542ZM48.8817 48.8421C48.4689 48.8421 48.1437 48.8882 47.9058 48.9804C47.675 49.0688 47.5106 49.2206 47.4127 49.4358C47.3147 49.6471 47.2658 49.9411 47.2658 50.3176C47.2658 50.6942 47.3147 50.9901 47.4127 51.2053C47.5106 51.4166 47.675 51.5684 47.9058 51.6606C48.1437 51.749 48.4689 51.7932 48.8817 51.7932C49.3014 51.7932 49.6266 51.749 49.8575 51.6606C50.0953 51.5684 50.2632 51.4166 50.3611 51.2053C50.4591 50.9901 50.508 50.6942 50.508 50.3176C50.508 49.9411 50.4591 49.6471 50.3611 49.4358C50.2632 49.2206 50.0953 49.0688 49.8575 48.9804C49.6266 48.8882 49.3014 48.8421 48.8817 48.8421Z" fill="#252726"/>
<path d="M55.9192 48.2772C56.5208 48.2772 57.007 48.3118 57.3777 48.381C57.7555 48.4501 58.0283 48.5692 58.1962 48.7383C58.371 48.9036 58.4585 49.138 58.4585 49.4415C58.4585 49.6413 58.413 49.8123 58.3221 49.9545C58.2381 50.0928 58.0947 50.2043 57.8919 50.2888C57.696 50.3695 57.4302 50.4214 57.0944 50.4444V50.4733C57.2133 50.4886 57.3358 50.5194 57.4617 50.5655C57.5946 50.6078 57.7135 50.6692 57.8184 50.7499C57.9303 50.8306 58.0143 50.9344 58.0703 51.0612L58.7313 52.3062H57.3463L56.7482 51.0785C56.6712 50.9401 56.5663 50.8441 56.4334 50.7903C56.3005 50.7326 56.1186 50.7038 55.8878 50.7038C55.4331 50.7038 55.0448 50.7038 54.7231 50.7038C54.4013 50.7 54.132 50.6961 53.9151 50.6923C53.7053 50.6885 53.5199 50.6865 53.359 50.6865L53.3905 50.139H55.8878C56.2025 50.1351 56.4509 50.1159 56.6328 50.0813C56.8146 50.0429 56.944 49.9776 57.021 49.8853C57.0979 49.7893 57.1364 49.6548 57.1364 49.4819C57.1364 49.3128 57.0979 49.1821 57.021 49.0899C56.944 48.9977 56.8146 48.9343 56.6328 48.8997C56.4509 48.8613 56.2025 48.8421 55.8878 48.8421C55.2722 48.8421 54.7441 48.844 54.3034 48.8478C53.8627 48.8517 53.5619 48.8555 53.401 48.8594L53.2541 48.3291C53.5339 48.3137 53.7962 48.3022 54.041 48.2945C54.2929 48.2868 54.5657 48.283 54.8595 48.283C55.1533 48.2791 55.5065 48.2772 55.9192 48.2772ZM54.5447 48.3291V52.3062H53.2541V48.3291H54.5447Z" fill="#252726"/>
</g>
</g>
</svg>
